<?xml version="1.0" encoding="utf-8"?>
<!-- Generator: Adobe Illustrator 22.0.0, SVG Export Plug-In . SVG Version: 6.00 Build 0)  -->
<svg version="1.1" id="Ebene_1" focusable="false" xmlns="http://www.w3.org/2000/svg" xmlns:xlink="http://www.w3.org/1999/xlink"
	 x="0px" y="0px" viewBox="0 0 512 512" style="enable-background:new 0 0 512 512;" xml:space="preserve">
<style type="text/css">
	.st0{fill:#FF4A5D;stroke:#000000;stroke-miterlimit:10;}
	.st1{fill:#FFFFFF;}
</style>
<rect x="-54.4" y="-54.5" class="st0" width="621" height="621"/>
<path class="st1" d="M440,6.5L24,246.4c-34.4,19.9-31.1,70.8,5.7,85.9L144,379.6V464c0,46.4,59.2,65.5,86.6,28.6l43.8-59.1
	l111.9,46.2c5.9,2.4,12.1,3.6,18.3,3.6c8.2,0,16.3-2.1,23.6-6.2c12.8-7.2,21.6-20,23.9-34.5l59.4-387.2
	C517.6,15.3,474.6-13.4,440,6.5L440,6.5z M192,464v-64.6l36.6,15.1L192,464z M404.6,435.3l-153.8-63.5L391,169.5
	c10.7-15.5-9.5-33.5-23.7-21.2L155.8,332.6L48,288L464,48L404.6,435.3z"/>
</svg>
